<svg id="svg" version="1.1" xmlns="http://www.w3.org/2000/svg" xmlns:xlink="http://www.w3.org/1999/xlink" width="400" height="400" viewBox="0, 0, 400,400"><g id="svgg"><path id="path0" d="M0.000 200.000 L 0.000 400.000 200.000 400.000 L 400.000 400.000 400.000 200.000 L 400.000 0.000 200.000 0.000 L 0.000 0.000 0.000 200.000 M101.101 99.700 L 101.202 166.400 133.801 166.400 L 166.400 166.400 166.400 99.843 C 166.400 39.520,166.459 33.263,167.033 33.043 C 167.860 32.726,233.340 32.726,234.167 33.043 C 234.741 33.263,234.800 39.520,234.800 99.843 L 234.800 166.400 267.200 166.400 L 299.600 166.400 299.600 99.843 C 299.600 39.520,299.659 33.263,300.233 33.043 C 301.185 32.677,366.922 32.763,367.501 33.130 C 367.900 33.384,367.981 53.827,367.901 134.024 L 367.800 234.600 334.500 234.702 L 301.200 234.805 301.200 268.002 L 301.200 301.200 268.002 301.200 L 234.805 301.200 234.702 334.500 L 234.600 367.800 200.500 367.902 L 166.400 368.004 166.400 334.602 L 166.400 301.200 133.000 301.200 L 99.600 301.200 99.600 268.000 L 99.600 234.800 66.443 234.800 C 36.577 234.800,33.261 234.737,33.043 234.167 C 32.534 232.841,32.771 33.789,33.282 33.278 C 33.653 32.907,41.567 32.819,67.382 32.898 L 101.000 33.000 101.101 99.700 " stroke="none" fill="#f4f4f4" fill-rule="evenodd"></path><path id="path1" d="M33.386 33.698 C 33.281 33.974,33.241 79.200,33.298 134.200 L 33.400 234.200 66.700 234.302 L 100.000 234.405 100.000 267.600 L 100.000 300.795 133.300 300.898 L 166.600 301.000 166.702 334.302 L 166.805 367.605 200.502 367.502 L 234.200 367.400 234.400 334.200 L 234.600 301.000 267.698 300.898 L 300.795 300.795 300.898 267.698 L 301.000 234.600 334.200 234.400 L 367.400 234.200 367.400 133.800 L 367.400 33.400 333.800 33.400 L 300.200 33.400 300.000 100.000 L 299.800 166.600 267.101 166.702 L 234.402 166.805 234.301 100.102 L 234.200 33.400 200.600 33.400 L 167.000 33.400 166.800 100.000 L 166.600 166.600 133.800 166.600 L 101.000 166.600 100.800 100.000 L 100.600 33.400 67.088 33.298 C 40.490 33.217,33.537 33.299,33.386 33.698 " stroke="none" fill="#9484e4" fill-rule="evenodd"></path><path id="path2" d="M33.282 33.278 C 32.771 33.789,32.534 232.841,33.043 234.167 C 33.261 234.737,36.577 234.800,66.443 234.800 L 99.600 234.800 99.600 268.000 L 99.600 301.200 133.000 301.200 L 166.400 301.200 166.400 334.602 L 166.400 368.004 200.500 367.902 L 234.600 367.800 234.702 334.500 L 234.805 301.200 268.002 301.200 L 301.200 301.200 301.200 268.002 L 301.200 234.805 334.500 234.702 L 367.800 234.600 367.901 134.024 C 367.981 53.827,367.900 33.384,367.501 33.130 C 366.922 32.763,301.185 32.677,300.233 33.043 C 299.659 33.263,299.600 39.520,299.600 99.843 L 299.600 166.400 267.200 166.400 L 234.800 166.400 234.800 99.843 C 234.800 39.520,234.741 33.263,234.167 33.043 C 233.340 32.726,167.860 32.726,167.033 33.043 C 166.459 33.263,166.400 39.520,166.400 99.843 L 166.400 166.400 133.801 166.400 L 101.202 166.400 101.101 99.700 L 101.000 33.000 67.382 32.898 C 41.567 32.819,33.653 32.907,33.282 33.278 M100.800 100.000 L 101.000 166.600 133.800 166.600 L 166.600 166.600 166.800 100.000 L 167.000 33.400 200.600 33.400 L 234.200 33.400 234.301 100.102 L 234.402 166.805 267.101 166.702 L 299.800 166.600 300.000 100.000 L 300.200 33.400 333.800 33.400 L 367.400 33.400 367.400 133.800 L 367.400 234.200 334.200 234.400 L 301.000 234.600 300.898 267.698 L 300.795 300.795 267.698 300.898 L 234.600 301.000 234.400 334.200 L 234.200 367.400 200.502 367.502 L 166.805 367.605 166.702 334.302 L 166.600 301.000 133.300 300.898 L 100.000 300.795 100.000 267.600 L 100.000 234.405 66.700 234.302 L 33.400 234.200 33.298 134.200 C 33.241 79.200,33.281 33.974,33.386 33.698 C 33.537 33.299,40.490 33.217,67.088 33.298 L 100.600 33.400 100.800 100.000 " stroke="none" fill="#f8d8ec" fill-rule="evenodd"></path><path id="path3" d="M33.282 33.278 C 32.771 33.789,32.534 232.841,33.043 234.167 C 33.261 234.737,36.577 234.800,66.443 234.800 L 99.600 234.800 99.600 268.000 L 99.600 301.200 133.000 301.200 L 166.400 301.200 166.400 334.602 L 166.400 368.004 200.500 367.902 L 234.600 367.800 234.702 334.500 L 234.805 301.200 268.002 301.200 L 301.200 301.200 301.200 268.002 L 301.200 234.805 334.500 234.702 L 367.800 234.600 367.901 134.024 C 367.981 53.827,367.900 33.384,367.501 33.130 C 366.922 32.763,301.185 32.677,300.233 33.043 C 299.659 33.263,299.600 39.520,299.600 99.843 L 299.600 166.400 267.200 166.400 L 234.800 166.400 234.800 99.843 C 234.800 39.520,234.741 33.263,234.167 33.043 C 233.340 32.726,167.860 32.726,167.033 33.043 C 166.459 33.263,166.400 39.520,166.400 99.843 L 166.400 166.400 133.801 166.400 L 101.202 166.400 101.101 99.700 L 101.000 33.000 67.382 32.898 C 41.567 32.819,33.653 32.907,33.282 33.278 M100.800 100.000 L 101.000 166.600 133.800 166.600 L 166.600 166.600 166.800 100.000 L 167.000 33.400 200.600 33.400 L 234.200 33.400 234.301 100.102 L 234.402 166.805 267.101 166.702 L 299.800 166.600 300.000 100.000 L 300.200 33.400 333.800 33.400 L 367.400 33.400 367.400 133.800 L 367.400 234.200 334.200 234.400 L 301.000 234.600 300.898 267.698 L 300.795 300.795 267.698 300.898 L 234.600 301.000 234.400 334.200 L 234.200 367.400 200.502 367.502 L 166.805 367.605 166.702 334.302 L 166.600 301.000 133.300 300.898 L 100.000 300.795 100.000 267.600 L 100.000 234.405 66.700 234.302 L 33.400 234.200 33.298 134.200 C 33.241 79.200,33.281 33.974,33.386 33.698 C 33.537 33.299,40.490 33.217,67.088 33.298 L 100.600 33.400 100.800 100.000 " stroke="none" fill="#f8d8ec" fill-rule="evenodd"></path><path id="path4" d="M33.282 33.278 C 32.771 33.789,32.534 232.841,33.043 234.167 C 33.261 234.737,36.577 234.800,66.443 234.800 L 99.600 234.800 99.600 268.000 L 99.600 301.200 133.000 301.200 L 166.400 301.200 166.400 334.602 L 166.400 368.004 200.500 367.902 L 234.600 367.800 234.702 334.500 L 234.805 301.200 268.002 301.200 L 301.200 301.200 301.200 268.002 L 301.200 234.805 334.500 234.702 L 367.800 234.600 367.901 134.024 C 367.981 53.827,367.900 33.384,367.501 33.130 C 366.922 32.763,301.185 32.677,300.233 33.043 C 299.659 33.263,299.600 39.520,299.600 99.843 L 299.600 166.400 267.200 166.400 L 234.800 166.400 234.800 99.843 C 234.800 39.520,234.741 33.263,234.167 33.043 C 233.340 32.726,167.860 32.726,167.033 33.043 C 166.459 33.263,166.400 39.520,166.400 99.843 L 166.400 166.400 133.801 166.400 L 101.202 166.400 101.101 99.700 L 101.000 33.000 67.382 32.898 C 41.567 32.819,33.653 32.907,33.282 33.278 M100.800 100.000 L 101.000 166.600 133.800 166.600 L 166.600 166.600 166.800 100.000 L 167.000 33.400 200.600 33.400 L 234.200 33.400 234.301 100.102 L 234.402 166.805 267.101 166.702 L 299.800 166.600 300.000 100.000 L 300.200 33.400 333.800 33.400 L 367.400 33.400 367.400 133.800 L 367.400 234.200 334.200 234.400 L 301.000 234.600 300.898 267.698 L 300.795 300.795 267.698 300.898 L 234.600 301.000 234.400 334.200 L 234.200 367.400 200.502 367.502 L 166.805 367.605 166.702 334.302 L 166.600 301.000 133.300 300.898 L 100.000 300.795 100.000 267.600 L 100.000 234.405 66.700 234.302 L 33.400 234.200 33.298 134.200 C 33.241 79.200,33.281 33.974,33.386 33.698 C 33.537 33.299,40.490 33.217,67.088 33.298 L 100.600 33.400 100.800 100.000 " stroke="none" fill="#f8d8ec" fill-rule="evenodd"></path></g></svg>